<mxfile host="app.diagrams.net" modified="2022-03-01T02:28:02.385Z" agent="5.0 (Windows NT 10.0; Win64; x64) AppleWebKit/537.36 (KHTML, like Gecko) Chrome/98.0.4758.102 Safari/537.36" etag="8Nnv2kcwM0QuDHHYyxUR" version="16.6.4" type="github">
  <diagram id="pVyiBYiDIqIs_Qr44YTB" name="Page-1">
    <mxGraphModel dx="775" dy="393" grid="0" gridSize="10" guides="1" tooltips="1" connect="1" arrows="1" fold="1" page="1" pageScale="1" pageWidth="850" pageHeight="1100" math="0" shadow="0">
      <root>
        <mxCell id="0" />
        <mxCell id="1" parent="0" />
        <mxCell id="IhZy6Js9nY17kt_XiZze-11" value="Strategy 2" style="rounded=1;whiteSpace=wrap;html=1;dashed=1;fillColor=none;verticalAlign=top;align=center;fontStyle=1" parent="1" vertex="1">
          <mxGeometry x="155" y="539" width="430" height="190" as="geometry" />
        </mxCell>
        <mxCell id="IhZy6Js9nY17kt_XiZze-6" value="Strategy 1" style="rounded=1;whiteSpace=wrap;html=1;dashed=1;fillColor=none;verticalAlign=top;align=center;fontStyle=1" parent="1" vertex="1">
          <mxGeometry x="155" y="172" width="420" height="200" as="geometry" />
        </mxCell>
        <mxCell id="IhZy6Js9nY17kt_XiZze-2" value="Pod: CNF" style="rounded=0;whiteSpace=wrap;html=1;fillColor=#dae8fc;strokeColor=#6c8ebf;align=left;verticalAlign=top;fontStyle=1" parent="1" vertex="1">
          <mxGeometry x="195" y="202" width="320" height="150" as="geometry" />
        </mxCell>
        <mxCell id="IhZy6Js9nY17kt_XiZze-3" value="Container: OpenWRT" style="rounded=0;whiteSpace=wrap;html=1;fillColor=#fff2cc;strokeColor=#d6b656;align=left;verticalAlign=top;fontStyle=1;" parent="1" vertex="1">
          <mxGeometry x="215" y="252" width="140" height="70" as="geometry" />
        </mxCell>
        <mxCell id="IhZy6Js9nY17kt_XiZze-4" value="Container: Ubuntu-SGX&lt;br&gt;&lt;br&gt;strongsWAN+CTK" style="rounded=0;whiteSpace=wrap;html=1;fillColor=#f8cecc;strokeColor=#b85450;align=left;verticalAlign=top;fontStyle=1;" parent="1" vertex="1">
          <mxGeometry x="365" y="252" width="140" height="70" as="geometry" />
        </mxCell>
        <mxCell id="IhZy6Js9nY17kt_XiZze-5" value="&lt;span style=&quot;font-weight: normal&quot;&gt;&lt;font style=&quot;font-size: 11px&quot;&gt;Sync config &amp;amp; RPC control&lt;/font&gt;&lt;/span&gt;" style="rounded=0;whiteSpace=wrap;html=1;fillColor=#d5e8d4;strokeColor=#82b366;align=left;verticalAlign=middle;fontStyle=1" parent="1" vertex="1">
          <mxGeometry x="285" y="319" width="160" height="23" as="geometry" />
        </mxCell>
        <mxCell id="IhZy6Js9nY17kt_XiZze-7" value="Pod: CNF" style="rounded=0;whiteSpace=wrap;html=1;fillColor=#dae8fc;strokeColor=#6c8ebf;align=left;verticalAlign=top;fontStyle=1" parent="1" vertex="1">
          <mxGeometry x="210" y="569" width="320" height="150" as="geometry" />
        </mxCell>
        <mxCell id="IhZy6Js9nY17kt_XiZze-8" value="Container: OpenWRT&lt;br&gt;&lt;br&gt;stongsWAN" style="rounded=0;whiteSpace=wrap;html=1;fillColor=#fff2cc;strokeColor=#d6b656;align=left;verticalAlign=top;fontStyle=1;" parent="1" vertex="1">
          <mxGeometry x="230" y="619" width="140" height="70" as="geometry" />
        </mxCell>
        <mxCell id="IhZy6Js9nY17kt_XiZze-9" value="Container: Ubuntu-SGX&lt;br&gt;&lt;br&gt;CTK + p11-kit" style="rounded=0;whiteSpace=wrap;html=1;fillColor=#f8cecc;strokeColor=#b85450;align=left;verticalAlign=top;fontStyle=1;" parent="1" vertex="1">
          <mxGeometry x="380" y="619" width="140" height="70" as="geometry" />
        </mxCell>
        <mxCell id="IhZy6Js9nY17kt_XiZze-10" value="pkcs#11 forwarding&amp;nbsp;" style="rounded=0;whiteSpace=wrap;html=1;fillColor=#d5e8d4;strokeColor=#82b366;align=left;verticalAlign=middle;fontStyle=0" parent="1" vertex="1">
          <mxGeometry x="300" y="679" width="160" height="30" as="geometry" />
        </mxCell>
      </root>
    </mxGraphModel>
  </diagram>
</mxfile>
